#N canvas 462 251 450 300 16;
#X obj 205 122 - 9.8;
#X obj 38 172 expr $f1*$f1 + $f2*$f2 + $f3*$f3;
#X obj 80 90 unpack 1 1 1;
#X obj 83 48 mrpeach/routeOSC /accxyz;
#X obj 81 12 inlet;
#X obj 44 211 outlet;
#X connect 0 0 1 2;
#X connect 1 0 5 0;
#X connect 2 0 1 0;
#X connect 2 1 1 1;
#X connect 2 2 0 0;
#X connect 3 0 2 0;
#X connect 4 0 3 0;
