#N canvas 246 360 470 332 16;
#X obj 80 90 unpack 1 1 1;
#X obj 83 48 mrpeach/routeOSC /accxyz;
#X obj 81 12 inlet;
#X obj 142 270 outlet;
#X floatatom 157 134 5 0 0 0 - - -, f 5;
#X floatatom 30 141 5 0 0 0 - - -, f 5;
#X floatatom 255 137 5 0 0 0 - - -, f 5;
#X obj 30 276 outlet;
#X obj 270 270 outlet;
#X obj 368 134 inlet;
#X obj 259 175 store;
#X floatatom 195 209 5 0 0 0 - - -, f 5;
#X obj 152 177 store;
#X obj 45 181 store;
#X floatatom 343 208 5 0 0 0 - - -, f 5;
#X floatatom 80 212 5 0 0 0 - - -, f 5;
#X obj 50 241 / \$1;
#X obj 154 237 / \$1;
#X obj 281 237 / \$1;
#X connect 0 0 5 0;
#X connect 0 0 13 0;
#X connect 0 1 4 0;
#X connect 0 1 12 0;
#X connect 0 2 6 0;
#X connect 0 2 10 0;
#X connect 1 0 0 0;
#X connect 2 0 1 0;
#X connect 9 0 10 1;
#X connect 9 0 12 1;
#X connect 9 0 13 1;
#X connect 10 0 14 0;
#X connect 10 0 18 0;
#X connect 12 0 11 0;
#X connect 12 0 17 0;
#X connect 13 0 15 0;
#X connect 13 0 16 0;
#X connect 16 0 7 0;
#X connect 17 0 3 0;
#X connect 18 0 8 0;
