#N canvas 242 177 974 510 16;
#X obj 27 348 osc~ 352;
#X obj 83 308 osc~ 3.1;
#X obj 205 255 osc~ 4.1;
#X obj 192 308 *~;
#X obj 124 252 sig~ 1;
#X obj 134 346 *~;
#X obj 90 383 *~;
#X obj 176 126 phasor~ 88;
#X obj 173 22 osc~ 0;
#X obj 252 19 osc~ 9.6;
#X obj 227 69 *~;
#X obj 438 22 osc~ 9.8;
#X obj 376 69 *~;
#X obj 350 19 sig~ 1;
#X obj 306 124 *~;
#X obj 267 167 *~;
#X obj 300 219 +~;
#X obj 338 170 sig~ 0;
#X obj 304 253 *~ 0.5;
#X obj 364 216 osc~ 6.8;
#X obj 507 164 osc~ 8.2;
#X obj 475 212 *~;
#X obj 427 161 sig~ 1;
#X obj 414 271 *~;
#X obj 325 313 *~;
#X obj 472 275 noise~;
#X obj 559 277 osc~ 4.5;
#X obj 512 313 *~;
#X obj 419 345 *~;
#X obj 717 222 phasor~ 572;
#X obj 855 228 osc~ 4.4;
#X obj 741 255 *~;
#X obj 717 287 +~;
#X obj 658 254 sig~ 0;
#X obj 717 319 *~ 0.5;
#X obj 540 378 *~;
#X obj 602 379 osc~ 5.2;
#X obj 564 410 *~;
#X obj 358 442 *~;
#X obj 358 474 dac~;
#X connect 0 0 6 0;
#X connect 1 0 5 0;
#X connect 2 0 3 1;
#X connect 3 0 5 1;
#X connect 4 0 3 0;
#X connect 5 0 6 1;
#X connect 6 0 38 0;
#X connect 7 0 15 0;
#X connect 8 0 10 0;
#X connect 9 0 10 1;
#X connect 10 0 14 0;
#X connect 11 0 12 1;
#X connect 12 0 14 1;
#X connect 13 0 12 0;
#X connect 14 0 15 1;
#X connect 15 0 16 0;
#X connect 16 0 18 0;
#X connect 17 0 16 1;
#X connect 18 0 24 0;
#X connect 19 0 23 0;
#X connect 20 0 21 1;
#X connect 21 0 23 1;
#X connect 22 0 21 0;
#X connect 23 0 24 1;
#X connect 24 0 28 0;
#X connect 25 0 27 0;
#X connect 26 0 27 1;
#X connect 27 0 28 1;
#X connect 28 0 35 0;
#X connect 29 0 31 0;
#X connect 30 0 31 1;
#X connect 31 0 32 1;
#X connect 32 0 34 0;
#X connect 33 0 32 0;
#X connect 34 0 35 1;
#X connect 35 0 37 0;
#X connect 36 0 37 1;
#X connect 37 0 38 1;
#X connect 38 0 39 0;
#X connect 38 0 39 1;
