#N canvas 360 234 450 300 16;
#X obj 108 66 > 1000;
#X obj 108 117 tgl 15 0 empty empty empty 17 7 0 10 -262144 -1 -1 0
1;
#X obj 197 113 noise~;
#X obj 191 180 *~;
#X obj 73 24 inlet;
#X obj 178 222 outlet~;
#X connect 0 0 1 0;
#X connect 1 0 3 0;
#X connect 2 0 3 1;
#X connect 3 0 5 0;
#X connect 4 0 0 0;
