#N canvas 610 242 506 488 16;
#X obj 163 231 unpack 0 0 0;
#X obj 139 419 outlet;
#X obj 230 419 outlet;
#X obj 323 420 outlet;
#X obj 83 18 inlet;
#X obj 225 387 / 400;
#X obj 317 382 / 150;
#X obj 142 385 / 150;
#X obj 310 334 line 500;
#X obj 212 331 line 200;
#X msg 318 273 \$1 200;
#X obj 109 329 line 200;
#X msg 221 277 \$1 200;
#X msg 111 281 \$1 200;
#X obj 163 192 route /leap/0/palm_pos;
#X connect 0 0 13 0;
#X connect 0 1 12 0;
#X connect 0 2 10 0;
#X connect 4 0 14 0;
#X connect 5 0 2 0;
#X connect 6 0 3 0;
#X connect 7 0 1 0;
#X connect 8 0 6 0;
#X connect 9 0 5 0;
#X connect 10 0 8 0;
#X connect 11 0 7 0;
#X connect 12 0 9 0;
#X connect 13 0 11 0;
#X connect 14 0 0 0;
