#N canvas 280 158 506 424 16;
#X obj 112 3 leapmotion;
#X obj 113 -68 tgl 28 0 empty empty empty 17 7 0 10 -262144 -1 -1 0
1;
#X obj 109 -30 metro 50;
#X obj 162 82 route hand;
#X obj 165 144 route palm_position;
#X obj 165 183 unpack 0 0 0;
#X obj 168 113 route 0;
#X obj 160 228 outlet;
#X obj 251 228 outlet;
#X obj 344 229 outlet;
#X connect 0 1 3 0;
#X connect 1 0 2 0;
#X connect 2 0 0 0;
#X connect 3 0 6 0;
#X connect 4 0 5 0;
#X connect 5 0 7 0;
#X connect 5 1 8 0;
#X connect 5 2 9 0;
#X connect 6 0 4 0;
