#N canvas 0 0 1349 666 16;
#X obj 139 419 outlet;
#X obj 230 419 outlet;
#X obj 323 420 outlet;
#X obj 153 97 inlet;
#X obj 310 334 line 500;
#X obj 212 331 line 200;
#X msg 318 273 \$1 200;
#X obj 109 329 line 200;
#X msg 221 277 \$1 200;
#X msg 111 281 \$1 200;
#X obj 70 171 mrpeach/routeOSC /right/open;
#X obj 142 385 * 2;
#X obj 225 387 * 1;
#X obj 317 382 * -1;
#X obj 456 409 outlet;
#X obj 426 319 line 200;
#X msg 428 271 \$1 200;
#X obj 459 375 * 2;
#X obj 570 410 outlet;
#X obj 540 320 line 200;
#X msg 542 272 \$1 200;
#X obj 573 376 * 2;
#X obj 60 222 mrpeach/routeOSC /posx /posy /posz /roll /pitch /present
;
#X obj 675 406 outlet;
#X obj 645 316 line;
#X msg 647 268 \$1 1000;
#X connect 3 0 10 0;
#X connect 4 0 13 0;
#X connect 5 0 12 0;
#X connect 6 0 4 0;
#X connect 7 0 11 0;
#X connect 8 0 5 0;
#X connect 9 0 7 0;
#X connect 10 0 22 0;
#X connect 11 0 0 0;
#X connect 12 0 1 0;
#X connect 13 0 2 0;
#X connect 15 0 17 0;
#X connect 16 0 15 0;
#X connect 17 0 14 0;
#X connect 19 0 21 0;
#X connect 20 0 19 0;
#X connect 21 0 18 0;
#X connect 22 0 9 0;
#X connect 22 1 8 0;
#X connect 22 2 6 0;
#X connect 22 3 16 0;
#X connect 22 4 20 0;
#X connect 22 5 25 0;
#X connect 24 0 23 0;
#X connect 25 0 24 0;
