#N canvas 284 148 506 463 16;
#X obj 91 138 leapmotion;
#X obj 88 105 metro 50;
#X obj 141 217 route hand;
#X obj 144 279 route palm_position;
#X obj 144 318 unpack 0 0 0;
#X obj 147 248 route 0;
#X obj 139 363 outlet;
#X obj 230 363 outlet;
#X obj 323 364 outlet;
#X obj 82 63 inlet;
#X connect 0 1 2 0;
#X connect 1 0 0 0;
#X connect 2 0 5 0;
#X connect 3 0 4 0;
#X connect 4 0 6 0;
#X connect 4 1 7 0;
#X connect 4 2 8 0;
#X connect 5 0 3 0;
#X connect 9 0 1 0;
