#N canvas 606 213 506 488 16;
#X obj 92 93 leapmotion;
#X obj 89 60 metro 50;
#X obj 160 130 route hand;
#X obj 163 192 route palm_position;
#X obj 163 231 unpack 0 0 0;
#X obj 166 161 route 0;
#X obj 139 419 outlet;
#X obj 230 419 outlet;
#X obj 323 420 outlet;
#X obj 83 18 inlet;
#X obj 225 387 / 400;
#X obj 317 382 / 150;
#X obj 142 385 / 150;
#X obj 310 334 line 500;
#X obj 212 331 line 200;
#X msg 318 273 \$1 200;
#X obj 109 329 line 200;
#X msg 221 277 \$1 200;
#X msg 111 281 \$1 200;
#X connect 0 1 2 0;
#X connect 1 0 0 0;
#X connect 2 0 5 0;
#X connect 3 0 4 0;
#X connect 4 0 18 0;
#X connect 4 1 17 0;
#X connect 4 2 15 0;
#X connect 5 0 3 0;
#X connect 9 0 1 0;
#X connect 10 0 7 0;
#X connect 11 0 8 0;
#X connect 12 0 6 0;
#X connect 13 0 11 0;
#X connect 14 0 10 0;
#X connect 15 0 13 0;
#X connect 16 0 12 0;
#X connect 17 0 14 0;
#X connect 18 0 16 0;
