#N canvas 651 92 506 488 16;
#X obj 139 419 outlet;
#X obj 230 419 outlet;
#X obj 323 420 outlet;
#X obj 153 97 inlet;
#X obj 310 334 line 500;
#X obj 212 331 line 200;
#X msg 318 273 \$1 200;
#X obj 109 329 line 200;
#X msg 221 277 \$1 200;
#X msg 111 281 \$1 200;
#X obj 70 171 mrpeach/routeOSC /right/open;
#X obj 60 222 mrpeach/routeOSC /posx /posy /posz;
#X obj 142 385 * 2;
#X obj 225 387 * 1;
#X obj 317 382 * -1;
#X connect 3 0 10 0;
#X connect 4 0 14 0;
#X connect 5 0 13 0;
#X connect 6 0 4 0;
#X connect 7 0 12 0;
#X connect 8 0 5 0;
#X connect 9 0 7 0;
#X connect 10 0 11 0;
#X connect 11 0 9 0;
#X connect 11 1 8 0;
#X connect 11 2 6 0;
#X connect 12 0 0 0;
#X connect 13 0 1 0;
#X connect 14 0 2 0;
