#N canvas 345 176 509 420 16;
#X obj 117 16 inlet;
#X obj 238 101 outlet;
#X obj 65 206 + \$1;
#X obj 89 66 moses \$1;
#X msg 49 153 0;
#X obj 69 259 outlet;
#X connect 0 0 3 0;
#X connect 2 0 5 0;
#X connect 3 0 4 0;
#X connect 3 1 1 0;
#X connect 4 0 2 0;
