#N canvas 862 80 450 460 16;
#X obj 89 46 magnet 277;
#X obj 96 91 magnet 292;
#X obj 126 126 magnet 315;
#X obj 102 168 magnet 330;
#X obj 100 210 magnet 370;
#X obj 99 253 magnet 415;
#X obj 98 294 magnet 435;
#X obj 96 336 magnet 494;
#X obj 95 377 magnet 554;
#X obj 32 413 outlet;
#X obj 67 16 inlet;
#X connect 0 0 9 0;
#X connect 0 1 1 0;
#X connect 1 0 9 0;
#X connect 1 1 3 0;
#X connect 3 0 9 0;
#X connect 3 1 4 0;
#X connect 4 0 9 0;
#X connect 4 1 5 0;
#X connect 5 0 9 0;
#X connect 5 1 6 0;
#X connect 6 0 9 0;
#X connect 6 1 7 0;
#X connect 7 0 9 0;
#X connect 7 1 8 0;
#X connect 8 0 9 0;
#X connect 10 0 0 0;
