#N canvas 855 138 450 483 16;
#X obj 32 413 outlet;
#X obj 67 16 inlet;
#X obj 89 46 magnet 440;
#X obj 96 91 magnet 493.88;
#X obj 126 126 magnet 466.16;
#X obj 102 168 magnet 523.25;
#X obj 100 210 magnet 587.33;
#X obj 99 253 magnet 659.25;
#X obj 98 294 magnet 698.46;
#X obj 96 336 magnet 830.61;
#X obj 95 377 magnet 880;
#X connect 1 0 2 0;
#X connect 2 0 0 0;
#X connect 2 1 3 0;
#X connect 3 0 0 0;
#X connect 3 1 5 0;
#X connect 5 0 0 0;
#X connect 5 1 6 0;
#X connect 6 0 0 0;
#X connect 6 1 7 0;
#X connect 7 0 0 0;
#X connect 7 1 8 0;
#X connect 8 0 0 0;
#X connect 8 1 9 0;
#X connect 9 0 0 0;
#X connect 9 1 10 0;
#X connect 10 0 0 0;
