#N canvas 201 107 1110 626 16;
#X floatatom 195 160 5 0 0 0 - - -, f 5;
#X floatatom 277 162 5 0 0 0 - - -, f 5;
#X floatatom 352 162 5 0 0 0 - - -, f 5;
#X obj 414 540 dac~;
#X obj 265 63 leap;
#X obj 485 66 controller 8001;
#X obj 485 127 accelbeat;
#X obj 61 19 tgl 32 0 empty empty empty 17 7 0 10 -262144 -1 -1 1 1
;
#X msg 31 69 \; pd dsp \$1;
#X obj 269 204 pad;
#X obj 67 322 vsl 15 128 0 127 0 0 empty empty empty 0 -9 0 10 -262144
-1 -1 9200 1;
#X obj 79 468 dbtorms;
#X obj 425 468 *~;
#X obj 480 190 dummyperc;
#X obj 674 129 accelbeat;
#X obj 669 192 dummyperc;
#X obj 674 68 controller 8002;
#X text 485 28 kick;
#X text 670 26 hat;
#X obj 892 68 controller 8003;
#X obj 932 134 accelbeat;
#X obj 899 218 lead;
#X obj 812 154 fader;
#X connect 0 0 9 1;
#X connect 1 0 9 0;
#X connect 4 0 0 0;
#X connect 4 1 1 0;
#X connect 4 2 2 0;
#X connect 5 0 6 0;
#X connect 6 0 13 0;
#X connect 7 0 4 0;
#X connect 7 0 8 0;
#X connect 9 0 12 0;
#X connect 10 0 11 0;
#X connect 11 0 12 1;
#X connect 12 0 3 1;
#X connect 12 0 3 0;
#X connect 13 0 12 0;
#X connect 14 0 15 0;
#X connect 15 0 12 0;
#X connect 16 0 14 0;
#X connect 19 0 20 0;
#X connect 19 0 22 0;
#X connect 20 0 21 1;
#X connect 21 0 12 0;
#X connect 22 0 21 0;
#X coords 0 0 1 1 85 60 0;
