#N canvas 75 69 1236 672 16;
#X floatatom 99 177 5 0 0 0 - - -, f 5;
#X floatatom 181 179 5 0 0 0 - - -, f 5;
#X floatatom 256 179 5 0 0 0 - - -, f 5;
#X obj 524 622 dac~;
#X obj 204 93 leap;
#X obj 70 16 tgl 32 0 empty power empty 17 7 0 10 -262144 -1 -1 0 1
;
#X msg 40 66 \; pd dsp \$1;
#X obj 169 243 pad;
#X obj 53 312 vsl 15 128 0 127 0 0 empty volume empty 0 -9 0 10 -262144
-1 -1 0 1;
#X obj 65 458 dbtorms;
#X obj 527 352 *~;
#X text 374 21 kick;
#X text 556 20 hat;
#X text 892 23 lead synth;
#X text 170 26 pad;
#X obj 1073 57 tgl 29 0 empty empty empty 17 7 0 10 -262144 -1 -1 0
1;
#X text 722 20 snare;
#X obj 396 547 *~;
#X obj 483 545 *~;
#X obj 893 65 controller 8004;
#X obj 880 123 triggers;
#X floatatom 963 166 5 0 0 0 - - -, f 5;
#X obj 396 450 freeverb~;
#X obj 906 327 background;
#X obj 967 275 tgl 25 0 empty empty empty 17 7 0 10 -262144 -1 -1 0
1;
#X obj 584 497 *~;
#X obj 724 121 accel 17;
#X obj 286 270 pad2;
#X obj 937 195 + 60;
#X obj 561 62 controller 8003;
#X obj 366 55 controller 8002;
#X obj 726 61 controller 8001;
#X obj 487 165 perc 10000 15 10 100 0.25, f 13;
#X obj 777 162 perc 2000 15 10 100 4.5, f 12;
#X obj 368 166 perc 100 40 5 100 400, f 11;
#X obj 368 127 accel 18;
#X obj 608 122 accel 30;
#X obj 509 125 accel 15;
#X obj 631 164 perc 7000 2 10 2500 0.27, f 13;
#X obj 984 123 triggers2;
#X obj 1028 169 + 7;
#X obj 1090 191 triggers3;
#X obj 230 252 tgl 39 0 empty pad_p empty 17 7 0 10 -262144 -1 -1 0
1;
#X obj 96 289 expr (1-$f1);
#X obj 180 331 *~;
#X obj 218 330 *~;
#X obj 304 328 *~;
#X obj 234 210 *;
#X obj 1100 352 * 127;
#X obj 16 140 loadbang;
#X msg 30 205 0;
#X floatatom 355 284 5 0 0 0 - - -, f 5;
#X obj 774 269 synth;
#X obj 1007 370 *~;
#X obj 1142 287 s power;
#X obj 1086 388 s volume;
#X obj 287 219 r pad_f;
#X obj 1040 290 s pad_f;
#X obj 1048 254 s pad_p;
#X obj 190 58 controller 8010;
#X connect 0 0 7 0;
#X connect 1 0 7 1;
#X connect 1 0 47 0;
#X connect 2 0 7 2;
#X connect 4 0 0 0;
#X connect 4 1 1 0;
#X connect 4 2 2 0;
#X connect 5 0 6 0;
#X connect 7 0 44 0;
#X connect 7 1 45 0;
#X connect 8 0 9 0;
#X connect 9 0 10 1;
#X connect 9 0 17 1;
#X connect 9 0 18 1;
#X connect 9 0 25 1;
#X connect 10 0 3 1;
#X connect 10 0 3 0;
#X connect 10 0 22 0;
#X connect 10 0 22 1;
#X connect 15 0 26 1;
#X connect 15 0 35 1;
#X connect 15 0 36 1;
#X connect 15 0 37 1;
#X connect 17 0 3 0;
#X connect 18 0 3 1;
#X connect 19 0 20 0;
#X connect 19 0 39 0;
#X connect 19 0 41 0;
#X connect 20 0 21 0;
#X connect 20 0 28 0;
#X connect 22 0 17 0;
#X connect 22 1 18 0;
#X connect 23 0 53 0;
#X connect 24 0 23 0;
#X connect 25 0 3 0;
#X connect 25 0 3 1;
#X connect 26 0 33 0;
#X connect 27 0 46 0;
#X connect 28 0 52 0;
#X connect 29 0 36 0;
#X connect 29 0 37 0;
#X connect 30 0 35 0;
#X connect 31 0 26 0;
#X connect 32 0 10 0;
#X connect 33 0 10 0;
#X connect 34 0 10 0;
#X connect 35 0 34 0;
#X connect 36 2 38 0;
#X connect 37 0 32 0;
#X connect 38 0 10 0;
#X connect 39 0 40 0;
#X connect 39 0 21 0;
#X connect 40 0 28 0;
#X connect 41 0 15 0;
#X connect 41 1 24 0;
#X connect 41 2 58 0;
#X connect 41 3 57 0;
#X connect 41 4 54 0;
#X connect 41 5 48 0;
#X connect 41 6 53 1;
#X connect 42 0 43 0;
#X connect 42 0 46 1;
#X connect 42 0 47 1;
#X connect 42 0 27 2;
#X connect 43 0 44 1;
#X connect 43 0 45 1;
#X connect 44 0 17 0;
#X connect 45 0 18 0;
#X connect 46 0 25 0;
#X connect 47 0 27 0;
#X connect 47 0 51 0;
#X connect 48 0 55 0;
#X connect 49 0 50 0;
#X connect 50 0 42 0;
#X connect 52 0 10 0;
#X connect 53 0 25 0;
#X connect 56 0 27 1;
#X connect 59 0 4 0;
#X coords 0 0 1 1 85 60 0;
