#N canvas 523 85 758 626 16;
#X obj 188 120 leapmotion;
#X obj 189 49 tgl 28 0 empty empty empty 17 7 0 10 -262144 -1 -1 1
1;
#X obj 185 87 metro 50;
#X obj 238 199 route hand;
#X obj 241 261 route palm_position;
#X obj 241 300 unpack 0 0 0;
#X floatatom 178 349 5 0 0 0 - - -, f 5;
#X floatatom 295 354 5 0 0 0 - - -, f 5;
#X floatatom 412 356 5 0 0 0 - - -, f 5;
#X obj 244 230 route 0;
#X obj 262 436 phasor~;
#X obj 55 434 print;
#X obj 255 512 dac~;
#X connect 0 1 3 0;
#X connect 1 0 2 0;
#X connect 2 0 0 0;
#X connect 3 0 9 0;
#X connect 4 0 5 0;
#X connect 5 0 6 0;
#X connect 5 1 7 0;
#X connect 5 2 8 0;
#X connect 7 0 10 0;
#X connect 9 0 4 0;
#X connect 10 0 12 0;
#X connect 10 0 12 1;
