#N canvas 489 60 799 626 16;
#X floatatom 178 349 5 0 0 0 - - -, f 5;
#X floatatom 295 354 5 0 0 0 - - -, f 5;
#X floatatom 354 350 5 0 0 0 - - -, f 5;
#X obj 262 436 phasor~;
#X obj 55 434 print;
#X obj 255 512 dac~;
#X obj 446 89 network 8001;
#X obj 600 90 network 8002;
#X obj 231 85 leap;
#X obj 621 153 print;
#X obj 626 376 - 9.8;
#X obj 459 426 expr $f1*$f1 + $f2*$f2 + $f3*$f3;
#X floatatom 642 498 5 0 0 0 - - -, f 5;
#X obj 501 344 unpack 1 1 1;
#X obj 504 301 routeOSC /accxyz;
#X obj 513 257 unpackOSC;
#X obj 451 478 > 1000;
#X obj 451 529 tgl 15 0 empty empty empty 17 7 0 10 -262144 -1 -1 0
1;
#X obj 455 688 bng 15 250 50 0 empty empty empty 17 7 0 10 -262144
-1 -1;
#X connect 1 0 3 0;
#X connect 3 0 5 0;
#X connect 3 0 5 1;
#X connect 7 0 15 0;
#X connect 8 0 0 0;
#X connect 8 1 1 0;
#X connect 8 2 2 0;
#X connect 10 0 11 2;
#X connect 11 0 12 0;
#X connect 11 0 16 0;
#X connect 13 0 11 0;
#X connect 13 1 11 1;
#X connect 13 2 10 0;
#X connect 14 0 13 0;
#X connect 15 0 14 0;
#X connect 16 0 17 0;
