#N canvas 135 69 1204 672 16;
#X floatatom 99 177 5 0 0 0 - - -, f 5;
#X floatatom 181 179 5 0 0 0 - - -, f 5;
#X floatatom 256 179 5 0 0 0 - - -, f 5;
#X obj 524 622 dac~;
#X obj 169 80 leap;
#X obj 70 16 tgl 32 0 empty empty empty 17 7 0 10 -262144 -1 -1 1 1
;
#X msg 40 66 \; pd dsp \$1;
#X obj 173 221 pad;
#X obj 80 304 vsl 15 128 0 127 0 0 empty empty empty 0 -9 0 10 -262144
-1 -1 8500 1;
#X obj 92 450 dbtorms;
#X obj 535 430 *~;
#X text 374 5 kick;
#X text 556 20 hat;
#X text 892 23 lead synth;
#X text 170 26 pad;
#X obj 266 79 tgl 29 0 empty empty empty 17 7 0 10 -262144 -1 -1 0
1;
#X text 722 20 snare;
#X obj 413 546 *~;
#X obj 475 546 *~;
#X obj 893 65 controller 8004;
#X obj 880 123 triggers;
#X floatatom 963 166 5 0 0 0 - - -, f 5;
#X obj 408 495 freeverb~;
#X obj 830 397 background;
#X obj 848 354 tgl 25 0 empty empty empty 17 7 0 10 -262144 -1 -1 1
1;
#X obj 691 512 chords;
#X obj 591 481 *~;
#X obj 724 121 accel 17;
#X obj 295 270 pad2;
#X obj 960 227 + 60;
#X obj 561 62 controller 8003;
#X obj 366 55 controller 8002;
#X obj 726 61 controller 8001;
#X obj 440 203 perc 10000 15 10 100 0.25;
#X obj 733 201 perc 2000 15 10 100 4.5;
#X obj 368 166 perc 100 40 5 100 400;
#X obj 368 127 accel 18;
#X obj 608 122 accel 30;
#X obj 509 125 accel 15;
#X obj 880 265 synth 1;
#X obj 597 166 perc 7000 2 10 2500 0.27;
#X obj 1001 123 triggers2;
#X obj 1033 182 + 7;
#X connect 0 0 7 0;
#X connect 1 0 7 1;
#X connect 1 0 28 0;
#X connect 2 0 7 2;
#X connect 4 0 0 0;
#X connect 4 1 1 0;
#X connect 4 2 2 0;
#X connect 5 0 4 0;
#X connect 5 0 6 0;
#X connect 8 0 9 0;
#X connect 9 0 10 1;
#X connect 9 0 17 1;
#X connect 9 0 18 1;
#X connect 9 0 26 1;
#X connect 10 0 3 1;
#X connect 10 0 3 0;
#X connect 10 0 22 0;
#X connect 10 0 22 1;
#X connect 15 0 27 1;
#X connect 15 0 36 1;
#X connect 15 0 37 1;
#X connect 15 0 38 1;
#X connect 17 0 3 0;
#X connect 18 0 3 1;
#X connect 19 0 20 0;
#X connect 19 0 41 0;
#X connect 20 0 21 0;
#X connect 20 0 29 0;
#X connect 22 0 17 0;
#X connect 22 1 18 0;
#X connect 23 0 26 0;
#X connect 24 0 23 0;
#X connect 26 0 3 0;
#X connect 26 0 3 1;
#X connect 27 0 34 0;
#X connect 28 0 26 0;
#X connect 29 0 39 0;
#X connect 30 0 37 0;
#X connect 30 0 38 0;
#X connect 31 0 36 0;
#X connect 32 0 27 0;
#X connect 33 0 10 0;
#X connect 34 0 10 0;
#X connect 35 0 10 0;
#X connect 36 0 35 0;
#X connect 37 2 40 0;
#X connect 38 0 33 0;
#X connect 39 0 10 0;
#X connect 40 0 10 0;
#X connect 41 0 42 0;
#X connect 42 0 29 0;
#X coords 0 0 1 1 85 60 0;
