#N canvas 281 62 1066 649 16;
#X floatatom 99 177 5 0 0 0 - - -, f 5;
#X floatatom 181 179 5 0 0 0 - - -, f 5;
#X floatatom 256 179 5 0 0 0 - - -, f 5;
#X obj 387 577 dac~;
#X obj 169 80 leap;
#X obj 392 61 controller 8001;
#X obj 70 16 tgl 32 0 empty empty empty 17 7 0 10 -262144 -1 -1 1 1
;
#X msg 40 66 \; pd dsp \$1;
#X obj 173 221 pad;
#X obj 80 304 vsl 15 128 0 127 0 0 empty empty empty 0 -9 0 10 -262144
-1 -1 8300 1;
#X obj 92 450 dbtorms;
#X obj 407 458 *~;
#X obj 560 62 controller 8002;
#X text 392 23 kick;
#X text 556 20 hat;
#X text 892 23 lead synth;
#X text 170 26 pad;
#X obj 558 121 accel 20;
#X obj 266 52 tgl 29 0 empty empty empty 17 7 0 10 -262144 -1 -1 0
1;
#X obj 544 201 perc 10000 15 1;
#X obj 386 201 perc 150 40 40;
#X obj 390 123 accel 18;
#X obj 724 121 accel 20;
#X text 722 20 snare;
#X obj 726 62 controller 8003;
#X obj 710 201 perc 2000 15 10;
#X obj 276 501 *~;
#X obj 338 501 *~;
#X obj 893 65 controller 8004;
#X obj 856 127 xy;
#X obj 901 201 synth;
#X connect 0 0 8 0;
#X connect 1 0 8 1;
#X connect 2 0 8 2;
#X connect 4 0 0 0;
#X connect 4 1 1 0;
#X connect 4 2 2 0;
#X connect 5 0 21 0;
#X connect 6 0 4 0;
#X connect 6 0 7 0;
#X connect 8 0 26 0;
#X connect 8 1 27 0;
#X connect 9 0 10 0;
#X connect 10 0 11 1;
#X connect 10 0 26 1;
#X connect 10 0 27 1;
#X connect 11 0 3 1;
#X connect 11 0 3 0;
#X connect 12 0 17 0;
#X connect 17 0 19 0;
#X connect 18 0 17 1;
#X connect 18 0 21 1;
#X connect 19 0 11 0;
#X connect 20 0 11 0;
#X connect 21 2 20 0;
#X connect 22 0 25 0;
#X connect 24 0 22 0;
#X connect 25 0 11 0;
#X connect 26 0 3 0;
#X connect 27 0 3 1;
#X connect 28 0 29 0;
#X connect 29 0 30 0;
#X connect 29 1 30 1;
#X connect 30 0 11 0;
#X coords 0 0 1 1 85 60 0;
