#N canvas 0 0 1349 666 10;
#X obj 1062 456 sqrt;
#X floatatom 1089 421 5 0 0 0 - - -, f 5;
#X obj 1061 391 expr pow(($f1-0.3) \, 2) + pow(($f2-0.3) \, 2);
#X floatatom 1146 485 5 0 0 0 - - -, f 5;
#X floatatom 1133 531 5 0 0 0 - - -, f 5;
#X obj 1020 538 expr (0.3-$f1)/0.3;
#X floatatom 1020 560 5 0 0 0 - - -, f 5;
#X obj 1040 494 moses 0.3;
#X msg 1061 516 0.3;
#X obj 1175 183 print;
#X obj 1175 129 list 2 3 4;
#X obj 1175 151 + 3;
#X obj 1203 98 bng 15 250 50 0 empty empty empty 17 7 0 10 -262144
-1 -1;
#X obj 1256 196 list-drip;
#X obj 1256 218 + 3;
#X obj 1256 240 thresh;
#X obj 1250 287 print;
#X obj 159 450 hsl 128 15 0 127 0 0 empty empty empty -2 -8 0 10 -262144
-1 -1 0 1;
#X obj 159 450 hsl 128 15 0 1 0 0 ch1-in ch1-out ch1 -2 -8 0 10 -262144
-1 -1 0 1;
#X obj 326 450 hsl 128 15 0 1 0 0 ch2-in ch2-out ch2 -2 -8 0 10 -262144
-1 -1 0 1;
#X obj 157 490 hsl 128 15 0 1 0 0 ch3-in ch3-out ch3 -2 -8 0 10 -262144
-1 -1 0 1;
#X obj 325 489 hsl 128 15 0 1 0 0 ch4-in ch4-out ch4 -2 -8 0 10 -262144
-1 -1 0 1;
#X obj 472 58 grid grid1 342 0 1 308 0 1 1 0.01 0.01 100 100 593 268
;
#X obj 513 417 s x;
#X floatatom 554 390 5 0 0 0 - - -, f 5;
#X obj 843 419 s y;
#X floatatom 879 401 5 0 0 0 - - -, f 5;
#X obj 734 -3 loadbang;
#X msg 1253 166 0.4 0.3;
#X obj 1032 338 r x;
#X obj 1094 336 r y;
#X obj 29 151 bng 15 250 50 0 empty empty empty 17 7 0 10 -262144 -1
-1;
#X msg 146 45 0.3 0.3 0.35;
#X msg 146 73 0.3 0.8 0.35;
#X msg 147 105 0.8 0.3 0.35;
#X msg 146 136 0.8 0.8 0.35;
#X obj 302 125 s circ;
#X obj 304 233 r circ;
#X obj 304 277 print;
#X obj 342 96 iter;
#X obj 942 147 sqrt;
#X floatatom 969 112 5 0 0 0 - - -, f 5;
#X floatatom 1026 176 5 0 0 0 - - -, f 5;
#X floatatom 1013 222 5 0 0 0 - - -, f 5;
#X floatatom 900 280 5 0 0 0 - - -, f 5;
#X obj 862 11 r x;
#X obj 925 11 r y;
#X obj 288 50 s c1;
#X obj 1008 32 r c1;
#X obj 942 56 list append;
#X obj 1059 362 list;
#X obj 896 37 pack;
#X obj 941 82 expr pow(($f1-$f3) \, 2) + pow(($f2-$f4) \, 2);
#X obj 874 108 expr $f5;
#X obj 920 185 moses;
#X obj 874 130 s rad;
#X obj 983 189 r rad;
#X obj 814 492 20;
#X floatatom 814 514 5 0 0 0 - - -, f 5;
#X obj 792 454 bng 15 250 50 0 empty empty empty 17 7 0 10 -262144
-1 -1;
#X floatatom 828 451 5 0 0 0 - - -, f 5;
#X obj 940 233 100;
#X obj 926 208 bng 15 250 50 0 empty empty empty 17 7 0 10 -262144
-1 -1;
#X obj 899 254 expr abs($f2-$f1)/$f2;
#X connect 0 0 3 0;
#X connect 0 0 7 0;
#X connect 2 0 1 0;
#X connect 2 0 0 0;
#X connect 5 0 6 0;
#X connect 7 0 4 0;
#X connect 7 0 5 0;
#X connect 7 1 8 0;
#X connect 8 0 5 0;
#X connect 10 0 11 0;
#X connect 11 0 9 0;
#X connect 12 0 10 0;
#X connect 13 0 14 0;
#X connect 14 0 15 0;
#X connect 15 0 16 0;
#X connect 22 0 23 0;
#X connect 22 0 24 0;
#X connect 22 1 25 0;
#X connect 22 1 26 0;
#X connect 28 0 13 0;
#X connect 29 0 50 0;
#X connect 30 0 50 1;
#X connect 31 0 32 0;
#X connect 31 0 33 0;
#X connect 31 0 34 0;
#X connect 31 0 35 0;
#X connect 32 0 39 0;
#X connect 32 0 47 0;
#X connect 33 0 39 0;
#X connect 34 0 39 0;
#X connect 35 0 39 0;
#X connect 39 0 36 0;
#X connect 40 0 42 0;
#X connect 40 0 54 0;
#X connect 45 0 51 0;
#X connect 46 0 51 1;
#X connect 48 0 49 1;
#X connect 49 0 52 0;
#X connect 49 0 53 0;
#X connect 50 0 2 0;
#X connect 51 0 49 0;
#X connect 52 0 41 0;
#X connect 52 0 40 0;
#X connect 53 0 54 1;
#X connect 53 0 55 0;
#X connect 54 0 43 0;
#X connect 54 0 63 0;
#X connect 54 1 62 0;
#X connect 56 0 61 1;
#X connect 56 0 63 1;
#X connect 57 0 58 0;
#X connect 59 0 57 0;
#X connect 59 0 57 1;
#X connect 60 0 57 1;
#X connect 61 0 63 0;
#X connect 62 0 61 0;
#X connect 62 0 61 1;
#X connect 63 0 44 0;
