#N canvas 167 231 618 451 16;
#X obj 112 17 inlet;
#X obj 118 95 line~;
#X obj 132 134 mtof~;
#X obj 130 175 phasor~;
#X obj 127 270 outlet~;
#X obj 130 218 lop~ 1000;
#X msg 110 52 \$1 100;
#X connect 0 0 6 0;
#X connect 1 0 2 0;
#X connect 2 0 3 0;
#X connect 3 0 5 0;
#X connect 5 0 4 0;
#X connect 6 0 1 0;
