#N canvas 184 179 1280 685 24;
#N canvas 418 60 455 465 enviar 0;
#X obj 20 264 cnv 15 400 180 empty empty conexión 20 12 0 14 -233017
-66577 0;
#X obj 21 10 cnv 15 200 180 empty empty mensajes 20 12 0 14 -204786
-66577 0;
#X obj 222 10 cnv 15 200 180 empty empty bundles 20 12 0 14 -261234
-66577 0;
#X obj 21 197 cnv 15 400 60 empty empty empaquetado 20 12 0 14 -204800
-66577 0;
#X obj 28 220 mrpeach/packOSC;
#X obj 39 393 mrpeach/udpsend;
#X msg 80 349 disconnect;
#X floatatom 56 94 5 0 0 0 - - -;
#X obj 279 32 t b b b b;
#X obj 245 35 bng 30 250 50 0 empty empty empty 17 7 0 10 -262144 -1
-1;
#X msg 242 74 ];
#X msg 366 73 [;
#X msg 56 147 /test/B \$1;
#X msg 281 117 /test/A 1;
#X msg 242 152 /test/B 2;
#X msg 32 53 /test/A 25;
#X msg 61 304 connect 193.145.43.136 9000;
#X connect 4 0 5 0;
#X connect 6 0 5 0;
#X connect 7 0 12 0;
#X connect 8 0 10 0;
#X connect 8 1 14 0;
#X connect 8 2 13 0;
#X connect 8 3 11 0;
#X connect 9 0 8 0;
#X connect 10 0 4 0;
#X connect 11 0 4 0;
#X connect 12 0 4 0;
#X connect 13 0 4 0;
#X connect 14 0 4 0;
#X connect 15 0 4 0;
#X connect 16 0 5 0;
#X restore 84 104 pd enviar;
#N canvas 447 360 1162 629 recibir 1;
#X obj 15 10 cnv 15 400 120 empty empty conexión 20 12 0 14 -233017
-66577 0;
#X obj 15 134 cnv 15 400 60 empty empty desempaquetado 20 12 0 14 -204800
-66577 0;
#N canvas 849 118 411 316 IP 0;
#X obj 44 134 unpack f f f f f;
#X floatatom 43 188 3 0 0 0 - - -;
#X floatatom 92 188 3 0 0 0 - - -;
#X floatatom 143 188 3 0 0 0 - - -;
#X floatatom 193 188 3 0 0 0 - - -;
#X obj 45 12 inlet;
#X obj 45 66 mrpeach/routeOSC /from;
#X connect 0 0 1 0;
#X connect 0 1 2 0;
#X connect 0 2 3 0;
#X connect 0 3 4 0;
#X connect 5 0 6 0;
#X connect 6 0 0 0;
#X restore 284 92 pd IP;
#X obj 20 157 mrpeach/unpackOSC;
#X obj 14 197 cnv 15 400 180 empty empty mensajes 20 12 0 14 -204786
-66577 0;
#X obj 20 39 mrpeach/udpreceive 8000;
#X obj 20 294 unpack 1 1 1;
#X floatatom 20 337 5 0 0 0 - - simbolo1;
#X floatatom 102 337 5 0 0 0 - - simbolo2;
#X floatatom 185 337 5 0 0 0 - - simbolo3;
#X obj 122 206 print;
#X obj 33 476 print t2;
#X obj 156 479 print t3;
#X obj 278 478 print t4;
#X obj 188 531 print f1;
#X obj 419 480 print f2;
#X obj 544 481 print f3;
#X obj 672 482 print f4;
#X obj 18 598 mrpeach/routeOSC /z;
#X obj 19 638 print t1z;
#X obj 283 641 print t1;
#X obj 424 251 cnv 15 400 60 empty empty empty 20 12 0 14 -257985 -66577
0;
#X floatatom 20 687 5 0 0 0 - - -;
#X floatatom 284 684 5 0 0 0 - - -;
#X text 95 687 finger state;
#X text 360 683 button state;
#X text 428 248 config. para layout "simple" de TouchOSC Android;
#X obj 312 531 mrpeach/routeOSC /z;
#X floatatom 312 575 5 0 0 0 - - -;
#X floatatom 399 576 5 0 0 0 - - -;
#X obj 799 481 print f5;
#N canvas 0 22 787 712 filterchange 0;
#X obj 68 30 inlet;
#X obj 197 86 change;
#X obj 106 184 f;
#X obj 67 228 +;
#X obj 66 269 / 2;
#X floatatom 94 86 5 0 0 0 - - -;
#X obj 68 129 t f f b;
#X floatatom 82 311 5 0 0 0 - - -;
#X obj 105 408 f;
#X obj 66 452 +;
#X obj 65 493 / 2;
#X obj 67 353 t f f b;
#X floatatom 83 533 5 0 0 0 - - -;
#X connect 0 0 6 0;
#X connect 0 0 5 0;
#X connect 2 0 3 1;
#X connect 3 0 4 0;
#X connect 4 0 7 0;
#X connect 4 0 11 0;
#X connect 6 0 3 0;
#X connect 6 1 2 1;
#X connect 6 2 2 0;
#X connect 8 0 9 1;
#X connect 9 0 10 0;
#X connect 10 0 12 0;
#X connect 11 0 9 0;
#X connect 11 1 8 1;
#X connect 11 2 8 0;
#X restore 427 339 pd filterchange;
#X floatatom 805 519 5 0 0 0 - - f1;
#X floatatom 613 586 5 0 0 0 - - t2;
#X floatatom 806 553 5 0 0 0 - - f2;
#X floatatom 803 590 5 0 0 0 - - f3;
#X floatatom 612 621 5 0 0 0 - - t3;
#X floatatom 805 628 5 0 0 0 - - f4;
#X floatatom 612 659 5 0 0 0 - - t4;
#X floatatom 805 664 5 0 0 0 - - f5;
#X floatatom 614 554 5 0 0 0 - - t1;
#X obj 20 250 mrpeach/routeOSC /accxyz /1 /2 /3 /4;
#X obj 599 110 maxlib/scale 0 1 48 72;
#X floatatom 599 143 5 0 0 0 - - -;
#X obj 602 53 hsl 128 15 0 1 0 0 empty empty empty -2 -8 0 10 -262144
-1 -1 5000 1;
#X floatatom 598 76 5 0 0 0 - - -;
#X obj 17 391 mrpeach/routeOSC /toggle1 /toggle2 /toggle3 /toggle4
/fader1 /fader2 /fader3 /fader4 /fader5;
#X connect 3 0 10 0;
#X connect 3 0 41 0;
#X connect 5 0 3 0;
#X connect 5 1 2 0;
#X connect 6 0 7 0;
#X connect 6 1 8 0;
#X connect 6 2 9 0;
#X connect 18 0 19 0;
#X connect 18 0 22 0;
#X connect 18 1 20 0;
#X connect 18 1 23 0;
#X connect 27 0 28 0;
#X connect 27 1 29 0;
#X connect 41 0 6 0;
#X connect 41 1 46 0;
#X connect 42 0 43 0;
#X connect 44 0 45 0;
#X connect 45 0 42 0;
#X connect 46 0 18 0;
#X connect 46 0 40 0;
#X connect 46 1 11 0;
#X connect 46 1 33 0;
#X connect 46 2 12 0;
#X connect 46 2 36 0;
#X connect 46 3 13 0;
#X connect 46 3 38 0;
#X connect 46 4 14 0;
#X connect 46 4 27 0;
#X connect 46 4 32 0;
#X connect 46 5 15 0;
#X connect 46 5 34 0;
#X connect 46 6 16 0;
#X connect 46 6 35 0;
#X connect 46 7 17 0;
#X connect 46 7 37 0;
#X connect 46 8 30 0;
#X connect 46 8 39 0;
#X restore 84 146 pd recibir;
#X text 83 63 OSC a PD;
#N canvas 485 59 1162 629 data 0;
#X floatatom 59 -16 5 0 0 0 - simbolo1 -;
#X floatatom 58 24 5 0 0 0 - simbolo2 -;
#X text 56 -53 acelerometros;
#X floatatom 57 60 5 0 0 0 - simbolo3 -;
#X text 134 18 y;
#X text 135 -19 x;
#X text 134 59 z;
#X text 53 112 toggles;
#X text -134 -48 faders;
#X floatatom 55 147 5 0 0 0 - t1 -;
#X floatatom 54 184 5 0 0 0 - t2 -;
#X floatatom 54 219 5 0 0 0 - t3 -;
#X floatatom 53 253 5 0 0 0 - t4 -;
#X text 128 149 1;
#X text 129 182 2;
#X text 128 215 3;
#X text -64 152 5;
#X text 128 251 4;
#X floatatom -128 -9 5 0 0 0 - f1 -;
#X floatatom -128 30 5 0 0 0 - f2 -;
#X floatatom -128 73 5 0 0 0 - f3 -;
#X floatatom -127 114 5 0 0 0 - f4 -;
#X floatatom -127 154 5 0 0 0 - f5 -;
#X text -64 -9 1;
#X text -64 30 2;
#X text -64 72 3;
#X text -64 112 4;
#X restore 83 182 pd data;
