#N canvas 553 328 661 442 16;
#X obj 33 15 inlet;
#X obj 348 31 inlet;
#X obj 105 350 outlet~;
#X obj 176 136 mtof;
#X obj 38 160 noise~;
#X floatatom 28 288 5 0 0 0 - - -, f 5;
#X obj 208 287 *~;
#X obj 94 207 bp~ 1000 20;
#X obj 275 212 osc~;
#X obj 189 26 inlet;
#X floatatom 287 134 5 0 0 0 - - -, f 5;
#X obj 271 348 outlet~;
#X floatatom 19 64 5 0 0 0 - - -, f 5;
#X obj 14 129 expr 1-$f1;
#X obj 195 321 pan~;
#X obj 85 53 * 30;
#X obj 232 245 *~;
#X obj 252 165 moses 1;
#X obj 285 98 expr 5*(1-$f1);
#X obj 11 251 expr 5*exp(-$f1);
#X obj 111 94 expr 40+20*$f1;
#X connect 0 0 15 0;
#X connect 0 0 12 0;
#X connect 1 0 18 0;
#X connect 3 0 7 1;
#X connect 3 0 8 0;
#X connect 4 0 7 0;
#X connect 6 0 14 0;
#X connect 7 0 6 1;
#X connect 8 0 16 1;
#X connect 9 0 19 0;
#X connect 9 0 20 0;
#X connect 10 0 17 0;
#X connect 14 0 2 0;
#X connect 14 1 11 0;
#X connect 15 0 14 1;
#X connect 17 1 7 2;
#X connect 18 0 10 0;
#X connect 19 0 5 0;
#X connect 19 0 6 0;
#X connect 20 0 3 0;
