#N struct text float x float y text t;
#N canvas 0 0 1349 666 16;
#X obj 114 14 inlet;
#X obj 101 237 phasor~;
#X obj 110 85 magnet_scale;
#X obj 115 152 line;
#X floatatom 234 123 5 0 0 0 - - -, f 5;
#X obj 109 271 rev3~ 100 90;
#X obj 83 392 lop~ 1000;
#X msg 109 121 \$1 30;
#X obj 399 49 inlet;
#X obj 280 242 phasor~;
#X obj 288 276 rev3~ 100 90;
#X obj 280 213 *~ 0.5;
#X obj 100 185 expr~ $v1*(1+$v2*$v3);
#X obj 205 153 osc~ 3;
#X obj 474 50 inlet;
#X obj 393 330 *~;
#X obj 157 313 +~;
#X obj 588 50 inlet;
#X obj 661 50 inlet;
#X obj 177 444 outlet~;
#X obj 343 442 outlet~;
#X floatatom 647 99 5 0 0 0 - - -, f 5;
#X obj 267 415 pan~;
#X obj 566 121 * 30;
#X obj 101 353 *~;
#X obj 436 128 * 0.65;
#X floatatom 27 98 5 0 0 0 - - -, f 5;
#X floatatom 14 35 5 0 0 0 - - -, f 5;
#X obj 222 15 expr pow(10 \, 3.5*$f1)-1;
#X obj 365 95 * 0.1;
#X obj 101 51 expr 140*(1+pow(3 \, 2*$f1));
#X obj 96 431 dac~;
#X floatatom 222 43 5 0 0 0 - - -, f 5;
#X floatatom 781 436 5 0 0 0 - - -, f 5;
#X floatatom 1038 277 5 0 0 0 - - -, f 5;
#X obj 920 133 bng 20 250 50 0 empty empty empty 17 7 0 10 -262144
-1 -1;
#X obj 780 339 mtof;
#X obj 944 212 list split 1;
#X obj 999 117 list append;
#X obj 747 9 sig~;
#X obj 767 124 edge~;
#X scalar text 820 302 \; \;;
#X msg 1046 25 76 73 74 76 77 74 74 79 77 76 74 76 74 72 71 72 74 72
76 69 76 73 74 76 77 79 77 77 74 74 79 77 76 74 76 74 72 71 72 74 72
76 69;
#X obj 750 57 expr~ $v1>0.35 & $v1<0.4;
#X connect 0 0 30 0;
#X connect 0 0 27 0;
#X connect 0 0 28 0;
#X connect 1 0 5 0;
#X connect 2 0 4 0;
#X connect 3 0 12 0;
#X connect 5 3 16 0;
#X connect 6 0 22 0;
#X connect 6 0 31 0;
#X connect 6 0 31 1;
#X connect 7 0 3 0;
#X connect 8 0 29 0;
#X connect 9 0 10 0;
#X connect 10 3 15 0;
#X connect 11 0 9 0;
#X connect 12 0 1 0;
#X connect 12 0 11 0;
#X connect 13 0 12 1;
#X connect 14 0 15 1;
#X connect 16 0 24 0;
#X connect 17 0 25 0;
#X connect 18 0 23 0;
#X connect 18 0 21 0;
#X connect 22 0 19 0;
#X connect 22 1 20 0;
#X connect 23 0 22 1;
#X connect 24 0 6 0;
#X connect 25 0 24 1;
#X connect 27 0 39 0;
#X connect 28 0 32 0;
#X connect 29 0 12 2;
#X connect 30 0 26 0;
#X connect 30 0 2 0;
#X connect 33 0 7 0;
#X connect 35 0 38 0;
#X connect 36 0 33 0;
#X connect 37 0 34 0;
#X connect 37 0 36 0;
#X connect 37 1 38 1;
#X connect 37 2 42 0;
#X connect 38 0 37 0;
#X connect 39 0 43 0;
#X connect 40 1 35 0;
#X connect 42 0 38 0;
#X connect 43 0 40 0;
