#N canvas 247 248 663 490 16;
#X obj 114 14 inlet;
#X obj 104 195 phasor~;
#X obj 68 402 outlet~;
#X obj 110 85 magnet_scale;
#X obj 108 154 line;
#X floatatom 241 132 5 0 0 0 - - -, f 5;
#X obj 109 240 rev3~ 100 90;
#X obj 98 337 lop~ 1000;
#X msg 109 121 \$1 30;
#X obj 114 49 expr 500*(0.8+$f1);
#X obj 116 292 *~ 0.35;
#X connect 0 0 9 0;
#X connect 1 0 6 0;
#X connect 3 0 8 0;
#X connect 3 0 5 0;
#X connect 4 0 1 0;
#X connect 6 0 10 0;
#X connect 6 1 10 0;
#X connect 6 2 10 0;
#X connect 6 3 10 0;
#X connect 7 0 2 0;
#X connect 8 0 4 0;
#X connect 9 0 3 0;
#X connect 10 0 7 0;
