#N canvas 192 192 847 490 16;
#X obj 114 14 inlet;
#X obj 101 237 phasor~;
#X obj 110 85 magnet_scale;
#X obj 108 154 line;
#X floatatom 234 123 5 0 0 0 - - -, f 5;
#X obj 109 271 rev3~ 100 90;
#X obj 83 392 lop~ 1000;
#X msg 109 121 \$1 30;
#X obj 330 51 inlet;
#X obj 280 242 phasor~;
#X obj 288 276 rev3~ 100 90;
#X obj 280 213 *~ 0.5;
#X obj 103 181 expr~ $v1*(1+$v2*$v3);
#X obj 365 95 * 0.05;
#X obj 205 153 osc~ 3;
#X obj 474 50 inlet;
#X obj 393 330 *~;
#X obj 157 313 +~;
#X obj 588 50 inlet;
#X obj 114 49 expr 550*(0.8+$f1);
#X obj 661 50 inlet;
#X obj 177 444 outlet~;
#X obj 343 442 outlet~;
#X floatatom 647 99 5 0 0 0 - - -, f 5;
#X obj 267 415 pan~;
#X obj 713 88 * 30;
#X obj 101 347 *~;
#X obj 436 128 * 0.65;
#X connect 0 0 19 0;
#X connect 1 0 5 0;
#X connect 2 0 7 0;
#X connect 2 0 4 0;
#X connect 3 0 12 0;
#X connect 5 0 17 0;
#X connect 5 1 17 0;
#X connect 5 2 17 0;
#X connect 5 3 17 0;
#X connect 6 0 24 0;
#X connect 7 0 3 0;
#X connect 8 0 13 0;
#X connect 9 0 10 0;
#X connect 10 0 16 0;
#X connect 10 1 16 0;
#X connect 10 2 16 0;
#X connect 10 3 16 0;
#X connect 11 0 9 0;
#X connect 12 0 1 0;
#X connect 12 0 11 0;
#X connect 13 0 12 2;
#X connect 14 0 12 1;
#X connect 15 0 16 1;
#X connect 16 0 17 1;
#X connect 17 0 26 0;
#X connect 18 0 27 0;
#X connect 19 0 2 0;
#X connect 20 0 25 0;
#X connect 20 0 23 0;
#X connect 24 0 21 0;
#X connect 24 1 22 0;
#X connect 25 0 24 1;
#X connect 26 0 6 0;
#X connect 27 0 26 1;
