#N canvas 0 0 1349 666 16;
#X obj 114 14 inlet;
#X obj 101 237 phasor~;
#X obj 110 85 magnet_scale;
#X obj 115 152 line;
#X floatatom 234 123 5 0 0 0 - - -, f 5;
#X obj 109 271 rev3~ 100 90;
#X obj 83 392 lop~ 1000;
#X msg 109 121 \$1 30;
#X obj 399 49 inlet;
#X obj 280 242 phasor~;
#X obj 288 276 rev3~ 100 90;
#X obj 280 213 *~ 0.5;
#X obj 100 185 expr~ $v1*(1+$v2*$v3);
#X obj 205 153 osc~ 3;
#X obj 474 50 inlet;
#X obj 393 330 *~;
#X obj 157 313 +~;
#X obj 588 50 inlet;
#X obj 661 50 inlet;
#X obj 177 444 outlet~;
#X obj 343 442 outlet~;
#X floatatom 647 99 5 0 0 0 - - -, f 5;
#X obj 267 415 pan~;
#X obj 713 88 * 30;
#X obj 101 353 *~;
#X obj 436 128 * 0.65;
#X floatatom 27 98 5 0 0 0 - - -, f 5;
#X floatatom 14 35 5 0 0 0 - - -, f 5;
#X obj 222 15 expr pow(10 \, 3.5*$f1)-1;
#X obj 365 95 * 0.1;
#X obj 101 51 expr 140*(1+pow(3 \, 2*$f1));
#X obj 96 431 dac~;
#X floatatom 222 43 5 0 0 0 - - -, f 5;
#X floatatom 553 263 5 0 0 0 - - -, f 5;
#X obj 599 484 dac~;
#X obj 560 389 +~;
#X obj 573 438 lop~ 1000;
#X obj 730 143 vsl 15 128 0 30 0 0 empty empty empty 0 -9 0 10 -262144
-1 -1 0 1;
#X obj 726 290 phasor~;
#X obj 531 342 rev3~ 100 80 2000 100;
#X obj 658 405 *~;
#X msg 717 399 1.5;
#X obj 559 215 expr floor($f1);
#X floatatom 871 463 5 0 0 0 - - -, f 5;
#X obj 917 231 bng 15 250 50 0 empty empty empty 17 7 0 10 -262144
-1 -1;
#X obj 938 344 list split 2;
#X obj 950 395 unpack f f;
#X obj 1090 453 del;
#X obj 1114 395 list append;
#X obj 973 461 mtof;
#X floatatom 851 593 5 0 0 0 - - -, f 5;
#X msg 917 310 67 500 72 2000 74 500 75 2000;
#X floatatom 1055 196 5 0 0 0 - - -, f 5;
#X obj 1079 8 bng 15 250 50 0 empty empty empty 17 7 0 10 -262144 -1
-1;
#X obj 1135 238 mtof;
#X msg 1134 12 67 72 74 75;
#X obj 1102 510 tabread;
#X obj 1102 129 list split 1;
#X obj 1101 96 list append;
#X floatatom 828 84 5 0 0 0 - - -, f 5;
#X floatatom 397 606 5 0 0 0 - - -, f 5;
#X obj 398 497 bng 15 250 50 0 empty empty empty 17 7 0 10 -262144
-1 -1;
#X obj 446 513 bng 15 250 50 0 empty empty empty 17 7 0 10 -262144
-1 -1;
#X obj 404 555 10;
#X obj 454 557 30;
#X floatatom 815 219 5 0 0 0 - - -, f 5;
#X obj 812 257 select 0;
#X obj 820 170 expr $f1<0.6 & $f1>0.59;
#X obj 928 14 sig~;
#X obj 934 105 edge~;
#X floatatom 906 136 5 0 0 0 - - -, f 5;
#X obj 931 62 expr~ $v1>0.4 & $v1<0.5;
#X connect 0 0 30 0;
#X connect 0 0 27 0;
#X connect 0 0 28 0;
#X connect 1 0 5 0;
#X connect 2 0 4 0;
#X connect 3 0 12 0;
#X connect 5 1 16 0;
#X connect 5 2 16 0;
#X connect 5 3 16 0;
#X connect 6 0 22 0;
#X connect 6 0 31 0;
#X connect 6 0 31 1;
#X connect 7 0 3 0;
#X connect 8 0 29 0;
#X connect 9 0 10 0;
#X connect 10 3 15 0;
#X connect 11 0 9 0;
#X connect 12 0 1 0;
#X connect 12 0 11 0;
#X connect 13 0 12 1;
#X connect 14 0 15 1;
#X connect 14 0 59 0;
#X connect 16 0 24 0;
#X connect 17 0 25 0;
#X connect 18 0 23 0;
#X connect 18 0 21 0;
#X connect 22 0 19 0;
#X connect 22 1 20 0;
#X connect 23 0 22 1;
#X connect 24 0 6 0;
#X connect 25 0 24 1;
#X connect 27 0 68 0;
#X connect 28 0 32 0;
#X connect 29 0 12 2;
#X connect 30 0 26 0;
#X connect 30 0 2 0;
#X connect 33 0 38 0;
#X connect 35 0 40 0;
#X connect 36 0 34 0;
#X connect 36 0 34 1;
#X connect 37 0 42 0;
#X connect 38 0 39 0;
#X connect 39 1 35 0;
#X connect 39 2 35 0;
#X connect 39 3 35 0;
#X connect 40 0 36 0;
#X connect 41 0 40 1;
#X connect 42 0 33 0;
#X connect 44 0 51 0;
#X connect 45 0 46 0;
#X connect 45 1 48 1;
#X connect 46 0 43 0;
#X connect 46 0 49 0;
#X connect 46 1 47 0;
#X connect 47 0 48 0;
#X connect 48 0 45 0;
#X connect 50 0 7 0;
#X connect 51 0 45 0;
#X connect 53 0 58 0;
#X connect 54 0 50 0;
#X connect 55 0 58 0;
#X connect 57 0 52 0;
#X connect 57 0 54 0;
#X connect 57 1 58 1;
#X connect 57 2 55 0;
#X connect 58 0 57 0;
#X connect 59 0 67 0;
#X connect 61 0 63 0;
#X connect 62 0 64 0;
#X connect 63 0 60 0;
#X connect 64 0 63 1;
#X connect 65 0 66 0;
#X connect 67 0 65 0;
#X connect 68 0 71 0;
#X connect 69 1 53 0;
#X connect 71 0 69 0;
