#N canvas 488 266 450 444 16;
#X obj 114 14 inlet;
#X obj 104 195 phasor~;
#X obj 109 240 rev3~ 100 90;
#X obj 91 332 outlet~;
#X obj 114 292 *~ 0.03;
#X obj 110 85 magnet_scale;
#X obj 110 159 line;
#X floatatom 241 132 5 0 0 0 - - -, f 5;
#X obj 114 49 expr 277*(0.8+$f1);
#X msg 109 121 \$1 200;
#X connect 0 0 8 0;
#X connect 1 0 2 0;
#X connect 2 0 4 0;
#X connect 2 1 4 0;
#X connect 2 2 4 0;
#X connect 2 3 4 0;
#X connect 4 0 3 0;
#X connect 5 0 9 0;
#X connect 5 0 7 0;
#X connect 6 0 1 0;
#X connect 8 0 5 0;
#X connect 9 0 6 0;
