#N canvas 424 248 663 444 16;
#X obj 114 14 inlet;
#X obj 104 195 phasor~;
#X obj 109 240 rev3~ 100 90;
#X obj 87 372 outlet~;
#X obj 110 85 magnet_scale;
#X obj 110 159 line;
#X floatatom 241 132 5 0 0 0 - - -, f 5;
#X obj 114 49 expr 277*(0.8+$f1);
#X msg 109 121 \$1 200;
#X obj 115 292 *~ 0.07;
#X obj 311 114 inlet;
#X obj 311 149 expr exp(ln(278)*$f1)-1;
#X obj 377 81 loadbang;
#X msg 391 115 0;
#X obj 131 332 *~;
#X floatatom 310 376 5 0 0 0 - - -, f 5;
#X obj 325 232 moses 0.9;
#X obj 309 322 expr -10*$f1+10;
#X obj 525 49 inlet;
#X msg 529 88 0;
#X connect 0 0 7 0;
#X connect 1 0 2 0;
#X connect 2 0 9 0;
#X connect 2 1 9 0;
#X connect 2 2 9 0;
#X connect 2 3 9 0;
#X connect 4 0 8 0;
#X connect 4 0 6 0;
#X connect 5 0 1 0;
#X connect 7 0 4 0;
#X connect 8 0 5 0;
#X connect 9 0 14 0;
#X connect 10 0 11 0;
#X connect 10 0 16 0;
#X connect 11 0 1 0;
#X connect 12 0 13 0;
#X connect 13 0 11 0;
#X connect 14 0 3 0;
#X connect 16 0 17 0;
#X connect 17 0 14 1;
#X connect 18 0 19 0;
#X connect 19 0 1 0;
