#N canvas 729 300 450 346 16;
#X obj 89 28 inlet;
#X obj 149 261 outlet~;
#X obj 241 86 noise~;
#X obj 110 148 ead~ 10 100;
#X obj 156 197 *~;
#X floatatom 22 87 5 0 0 0 - - -, f 5;
#X obj 107 106 raise_edge;
#X obj 242 127 bp~ \$1 \$2;
#X obj 158 226 *~ \$3;
#X connect 0 0 5 0;
#X connect 0 0 6 0;
#X connect 2 0 7 0;
#X connect 3 0 4 0;
#X connect 4 0 8 0;
#X connect 6 0 3 0;
#X connect 7 0 4 1;
#X connect 8 0 1 0;
