#N canvas -8 -8 1365 682 10;
#X floatatom 113 132 5 0 0 0 - - -, f 5;
#X obj 159 353 dac~;
#X obj 120 258 +~;
#X obj 133 307 lop~ 1000;
#X obj 290 12 vsl 15 128 0 30 0 0 empty empty empty 0 -9 0 10 -262144
-1 -1 0 1;
#X obj 286 159 phasor~;
#X obj 91 211 rev3~ 100 80 2000 100;
#X obj 218 274 *~;
#X msg 277 268 1.5;
#X obj 119 84 expr floor($f1);
#X connect 0 0 5 0;
#X connect 2 0 7 0;
#X connect 3 0 1 0;
#X connect 3 0 1 1;
#X connect 4 0 9 0;
#X connect 5 0 6 0;
#X connect 6 1 2 0;
#X connect 6 2 2 0;
#X connect 6 3 2 0;
#X connect 7 0 3 0;
#X connect 8 0 7 1;
#X connect 9 0 0 0;
