#N canvas 250 279 450 300 16;
#X obj 149 61 inlet;
#X obj 155 241 outlet;
#X obj 349 79 edge~;
#X obj 150 101 sig~;
#X obj 153 149 expr~ $v1>1;
#X obj 156 192 edge~;
#X obj 240 228 bng 15 250 50 0 empty empty empty 17 7 0 10 -262144
-1 -1;
#X floatatom 77 137 5 0 0 0 - - -, f 5;
#X connect 0 0 3 0;
#X connect 0 0 7 0;
#X connect 3 0 4 0;
#X connect 4 0 5 0;
#X connect 5 0 6 0;
#X connect 5 0 1 0;
