#N canvas 461 294 450 300 16;
#X obj 120 146 note;
#X obj 166 98 + 3;
#X obj 231 86 + 7;
#X obj 179 150 note;
#X obj 240 148 note;
#X obj 170 242 outlet~;
#X obj 65 22 inlet;
#X obj 292 89 + 12;
#X obj 294 152 note;
#X connect 0 0 5 0;
#X connect 1 0 3 0;
#X connect 2 0 4 0;
#X connect 3 0 5 0;
#X connect 4 0 5 0;
#X connect 6 0 1 0;
#X connect 6 0 2 0;
#X connect 6 0 0 0;
#X connect 6 0 7 0;
#X connect 7 0 8 0;
#X connect 8 0 5 0;
