#N canvas 713 326 450 300 16;
#X obj 138 34 inlet;
#X obj 50 36 inlet;
#X obj 98 96 spigot;
#X obj 89 140 -;
#X obj 84 190 outlet;
#X connect 0 0 2 1;
#X connect 1 0 2 0;
#X connect 1 0 3 0;
#X connect 2 0 3 1;
#X connect 3 0 4 0;
