#N canvas 0 0 1349 666 16;
#X msg 294 175 0;
#X floatatom 401 194 5 0 0 0 - - -, f 5;
#X obj 155 177 noise~;
#X obj 257 219 *~;
#X obj 308 411 *~ 0.99;
#X msg 245 170 1;
#X obj 392 131 mtof;
#X obj 294 147 del;
#X obj 237 499 delwrite~ buff 1000;
#X obj 382 236 t f f;
#X obj 386 298 sig~;
#X obj 314 357 delread4~ buff;
#X obj 273 47 inlet;
#X obj 489 458 *~;
#X obj 550 400 vline~;
#X obj 521 551 outlet~;
#X obj 286 92 t b b b f;
#X obj 395 161 expr 44100 / ($f1 * 1.09545) * 0.025;
#X obj 538 511 *~ 0.5;
#X msg 581 366 0 \, 1 50 \, 10 1000 200;
#X obj 368 450 lop~ 1000;
#X connect 0 0 3 1;
#X connect 1 0 9 0;
#X connect 2 0 3 0;
#X connect 3 0 8 0;
#X connect 4 0 8 0;
#X connect 4 0 20 0;
#X connect 5 0 3 1;
#X connect 6 0 17 0;
#X connect 6 0 20 1;
#X connect 7 0 0 0;
#X connect 9 0 7 1;
#X connect 9 1 10 0;
#X connect 10 0 11 0;
#X connect 11 0 4 0;
#X connect 12 0 16 0;
#X connect 13 0 18 0;
#X connect 14 0 13 1;
#X connect 16 0 19 0;
#X connect 16 1 5 0;
#X connect 16 2 7 0;
#X connect 16 3 6 0;
#X connect 17 0 1 0;
#X connect 18 0 15 0;
#X connect 19 0 14 0;
#X connect 20 0 13 0;
