#N canvas 0 0 1440 877 16;
#X msg 294 175 0;
#X floatatom 401 194 5 0 0 0 - - -, f 5;
#X obj 155 177 noise~;
#X obj 257 219 *~;
#X obj 308 411 *~ 0.99;
#X msg 245 170 1;
#X obj 392 131 mtof;
#X obj 294 147 del;
#X obj 382 236 t f f;
#X obj 386 298 sig~;
#X obj 314 357 delread4~ buff;
#X obj 273 47 inlet;
#X obj 517 577 outlet~;
#X obj 286 92 t b b b f;
#X obj 395 161 expr 44100 / ($f1 * 1.09545) * 0.025;
#X obj 368 450 lop~ 1000;
#X obj 651 500 bp~;
#X floatatom 731 424 5 0 0 0 - - -, f 5;
#X obj 237 499 delwrite~ buff 1000;
#X obj 550 400 line~;
#X msg 581 366 0.25 \, 0 500;
#X obj 534 537 *~;
#X connect 0 0 3 1;
#X connect 1 0 8 0;
#X connect 2 0 3 0;
#X connect 3 0 18 0;
#X connect 4 0 15 0;
#X connect 4 0 18 0;
#X connect 5 0 3 1;
#X connect 6 0 14 0;
#X connect 6 0 16 1;
#X connect 7 0 0 0;
#X connect 8 0 7 1;
#X connect 8 1 9 0;
#X connect 9 0 10 0;
#X connect 10 0 4 0;
#X connect 11 0 13 0;
#X connect 13 0 20 0;
#X connect 13 1 5 0;
#X connect 13 2 7 0;
#X connect 13 3 6 0;
#X connect 14 0 1 0;
#X connect 15 0 16 0;
#X connect 16 0 21 0;
#X connect 17 0 16 2;
#X connect 19 0 21 1;
#X connect 20 0 19 0;
#X connect 21 0 12 0;
