#N canvas 170 209 563 385 16;
#X obj 103 24 inlet;
#X obj 224 27 inlet;
#X floatatom 106 74 5 0 0 0 - - -, f 5;
#X floatatom 229 75 5 0 0 0 - - -, f 5;
#X obj 154 279 osc~;
#X obj 227 169 osc~;
#X obj 73 136 expr 40+20*$f1;
#X obj 105 182 mtof;
#X obj 162 231 *~;
#X obj 122 346 outlet~;
#X obj 131 314 *~ 10;
#X obj 261 127 * 10;
#X connect 0 0 2 0;
#X connect 1 0 3 0;
#X connect 2 0 6 0;
#X connect 3 0 11 0;
#X connect 4 0 10 0;
#X connect 5 0 8 1;
#X connect 6 0 7 0;
#X connect 7 0 8 0;
#X connect 8 0 4 0;
#X connect 10 0 9 0;
#X connect 11 0 5 0;
