#N canvas 308 134 889 593 16;
#X msg 294 175 0;
#X floatatom 400 198 5 0 0 0 - - -, f 5;
#X obj 155 177 noise~;
#X obj 257 219 *~;
#X obj 308 411 *~ 0.99;
#X obj 395 161 expr 44100 / ($f1 * 1.09545) * 0.025;
#X msg 245 170 1;
#X obj 392 131 mtof;
#X obj 294 147 del;
#X obj 237 499 delwrite~ buff 1000;
#X obj 382 236 t f f;
#X obj 386 298 sig~;
#X obj 314 357 delread4~ buff;
#X obj 273 47 inlet;
#X obj 489 458 *~;
#X obj 550 400 vline~;
#X obj 508 506 outlet~;
#X obj 286 92 t b b b f;
#X msg 581 366 1 \, 0 1000 10;
#X connect 0 0 3 1;
#X connect 1 0 10 0;
#X connect 2 0 3 0;
#X connect 3 0 9 0;
#X connect 4 0 9 0;
#X connect 4 0 14 0;
#X connect 5 0 1 0;
#X connect 6 0 3 1;
#X connect 7 0 5 0;
#X connect 8 0 0 0;
#X connect 10 0 8 1;
#X connect 10 1 11 0;
#X connect 11 0 12 0;
#X connect 12 0 4 0;
#X connect 13 0 17 0;
#X connect 14 0 16 0;
#X connect 15 0 14 1;
#X connect 17 0 18 0;
#X connect 17 1 6 0;
#X connect 17 2 8 0;
#X connect 17 3 7 0;
#X connect 18 0 15 0;
