#N canvas 121 133 837 529 16;
#X obj 93 11 inlet;
#X obj 291 161 outlet;
#X obj 83 57 mrpeach/routeOSC /3;
#X obj 729 57 print;
#X obj 86 163 outlet;
#X obj 186 162 outlet;
#X obj 82 100 mrpeach/routeOSC /toggle1 /toggle2 /toggle3 /fader3 /fader4
;
#X obj 507 162 outlet;
#X obj 402 163 outlet;
#X connect 0 0 2 0;
#X connect 2 0 3 0;
#X connect 2 0 6 0;
#X connect 6 0 4 0;
#X connect 6 1 5 0;
#X connect 6 2 1 0;
#X connect 6 3 8 0;
#X connect 6 4 7 0;
