#N canvas 326 224 837 506 16;
#X obj 93 11 inlet;
#X obj 82 100 mrpeach/routeOSC /push1 /push2 /push3 /push4 /push5 /push6
/push7 /push8 /push9 /push10 /push11 /push12 /push13 /push14 /push15
/push16, f 47;
#X obj 308 368 outlet;
#X obj 38 201 detector 1;
#X obj 51 229 detector 2;
#X obj 66 258 detector 3;
#X obj 82 288 detector 4;
#X obj 165 200 detector 5;
#X obj 178 228 detector 6;
#X obj 193 257 detector 7;
#X obj 209 287 detector 8;
#X obj 297 201 detector 9;
#X obj 310 229 detector 10;
#X obj 325 258 detector 11;
#X obj 436 202 detector 13;
#X obj 449 230 detector 14;
#X obj 464 259 detector 15;
#X obj 480 289 detector 16;
#X obj 341 288 detector 13;
#X obj 83 57 mrpeach/routeOSC /2;
#X connect 0 0 19 0;
#X connect 1 0 3 0;
#X connect 1 1 4 0;
#X connect 1 2 5 0;
#X connect 1 3 6 0;
#X connect 1 4 7 0;
#X connect 1 5 8 0;
#X connect 1 6 9 0;
#X connect 1 7 10 0;
#X connect 1 8 11 0;
#X connect 1 9 12 0;
#X connect 1 10 13 0;
#X connect 1 11 18 0;
#X connect 1 12 14 0;
#X connect 1 13 15 0;
#X connect 1 14 16 0;
#X connect 1 15 17 0;
#X connect 3 0 2 0;
#X connect 4 0 2 0;
#X connect 5 0 2 0;
#X connect 6 0 2 0;
#X connect 7 0 2 0;
#X connect 8 0 2 0;
#X connect 9 0 2 0;
#X connect 10 0 2 0;
#X connect 11 0 2 0;
#X connect 12 0 2 0;
#X connect 13 0 2 0;
#X connect 14 0 2 0;
#X connect 15 0 2 0;
#X connect 16 0 2 0;
#X connect 17 0 2 0;
#X connect 18 0 2 0;
#X connect 19 0 1 0;
