#N canvas 435 279 979 529 16;
#X obj 93 11 inlet;
#X obj 74 243 outlet;
#X obj 98 281 outlet;
#X obj 83 57 mrpeach/routeOSC /1;
#X obj 82 100 mrpeach/routeOSC /push1 /push2 /push3 /push4 /push5 /push6
/push7 /push8 /push9;
#X obj 73 177 detector 1;
#X obj 97 210 detector 1;
#X obj 209 245 outlet;
#X obj 233 283 outlet;
#X obj 208 179 detector 1;
#X obj 232 212 detector 1;
#X obj 344 245 outlet;
#X obj 368 283 outlet;
#X obj 343 179 detector 1;
#X obj 367 212 detector 1;
#X obj 479 247 outlet;
#X obj 503 285 outlet;
#X obj 478 181 detector 1;
#X obj 502 214 detector 1;
#X obj 601 243 outlet;
#X obj 600 177 detector 1;
#X connect 0 0 3 0;
#X connect 3 0 4 0;
#X connect 4 0 5 0;
#X connect 4 1 6 0;
#X connect 4 2 9 0;
#X connect 4 3 10 0;
#X connect 4 4 13 0;
#X connect 4 5 14 0;
#X connect 4 6 17 0;
#X connect 4 7 18 0;
#X connect 4 8 20 0;
#X connect 5 0 1 0;
#X connect 6 0 2 0;
#X connect 9 0 7 0;
#X connect 10 0 8 0;
#X connect 13 0 11 0;
#X connect 14 0 12 0;
#X connect 17 0 15 0;
#X connect 18 0 16 0;
#X connect 20 0 19 0;
