#N canvas 435 274 979 552 16;
#X obj 93 11 inlet;
#X obj 74 243 outlet;
#X obj 98 281 outlet;
#X obj 83 57 mrpeach/routeOSC /1;
#X obj 73 177 detector 1;
#X obj 97 210 detector 1;
#X obj 209 245 outlet;
#X obj 233 283 outlet;
#X obj 208 179 detector 1;
#X obj 232 212 detector 1;
#X obj 344 245 outlet;
#X obj 368 283 outlet;
#X obj 343 179 detector 1;
#X obj 367 212 detector 1;
#X obj 479 247 outlet;
#X obj 503 285 outlet;
#X obj 478 181 detector 1;
#X obj 502 214 detector 1;
#X obj 627 372 outlet;
#X obj 640 264 detector 1;
#X obj 82 100 mrpeach/routeOSC /push1 /push2 /push3 /push4 /push5 /push6
/push7 /push8 /push9 /push10 /push11 /push12;
#X obj 771 370 outlet;
#X obj 784 262 detector 1;
#X obj 902 375 outlet;
#X obj 915 267 detector 1;
#X obj 1020 373 outlet;
#X obj 1033 265 detector 1;
#X obj 1144 375 outlet;
#X obj 1157 267 detector 1;
#X connect 0 0 3 0;
#X connect 3 0 20 0;
#X connect 4 0 1 0;
#X connect 5 0 2 0;
#X connect 8 0 6 0;
#X connect 9 0 7 0;
#X connect 12 0 10 0;
#X connect 13 0 11 0;
#X connect 16 0 14 0;
#X connect 17 0 15 0;
#X connect 19 0 18 0;
#X connect 20 0 4 0;
#X connect 20 1 5 0;
#X connect 20 2 8 0;
#X connect 20 3 9 0;
#X connect 20 4 12 0;
#X connect 20 5 13 0;
#X connect 20 6 16 0;
#X connect 20 7 17 0;
#X connect 20 8 19 0;
#X connect 20 9 22 0;
#X connect 20 10 24 0;
#X connect 20 11 26 0;
#X connect 20 12 28 0;
#X connect 22 0 21 0;
#X connect 24 0 23 0;
#X connect 26 0 25 0;
#X connect 28 0 27 0;
